# xmcd
#
# Track frame offsets: 
#        150
#        19632
#        36165
#        60702
#        80845
#        101665
#        119615
#        141990
#        160865
#        181420
#
# Disc length: 2657 seconds
#
# Revision: 1
# Processed by: cddbd v1.5.1PL0 Copyright (c) Steve Scherf et al.
# Submitted via: ExactAudioCopy v0.95a4
#
DISCID=890a5f0a
DTITLE=Solomon Burke - Make Do With What You Got
DYEAR=2005
DGENRE=Soul
TTITLE0=I Need Your Love In My Life
TTITLE1=What Good Am I?
TTITLE2=It Makes No Difference
TTITLE3=Let Somebody Love Me
TTITLE4=After All These Years
TTITLE5=Fading Footsteps
TTITLE6=At The Crossroads
TTITLE7=I Got The Blues
TTITLE8=Make Do With What You Got
TTITLE9=Wealth Won't Save Your Soul
EXTD=
EXTT0=
EXTT1=
EXTT2=
EXTT3=
EXTT4=
EXTT5=
EXTT6=
EXTT7=
EXTT8=
EXTT9=
PLAYORDER=
